<svg width="100%" viewBox="223 123 223 293" xmlns="http://www.w3.org/2000/svg">
  <g transform="scale(-1, 1) translate(-680, 0)">

  <defs>
    <linearGradient id="spiralGrad" x1="0%" y1="0%" x2="100%" y2="100%">
      <stop offset="0%" stop-color="#1D9E75" stop-opacity="0.9" />
      <stop offset="40%" stop-color="#5DCAA5" stop-opacity="0.8" />
      <stop offset="75%" stop-color="#7F77DD" stop-opacity="0.85" />
      <stop offset="100%" stop-color="#534AB7" stop-opacity="1" />
    </linearGradient>
    <linearGradient id="spiralGrad2" x1="0%" y1="100%" x2="100%" y2="0%">
      <stop offset="0%" stop-color="#534AB7" stop-opacity="0.9" />
      <stop offset="50%" stop-color="#7F77DD" stop-opacity="0.7" />
      <stop offset="100%" stop-color="#1D9E75" stop-opacity="0.5" />
    </linearGradient>
  </defs>

  <path
    d="M 340 130&#10;     C 400 130, 440 155, 440 195&#10;     C 440 235, 400 258, 340 258&#10;     C 280 258, 240 282, 240 320&#10;     C 240 358, 280 385, 340 385"
    fill="none" stroke="url(#spiralGrad)" stroke-width="4.5" stroke-linecap="round" opacity="0.35"
    style="fill:none;color:rgb(0, 0, 0);stroke-width:4.5px;stroke-linecap:round;stroke-linejoin:miter;opacity:0.35;font-family:&quot;Anthropic Sans&quot;, -apple-system, &quot;system-ui&quot;, &quot;Segoe UI&quot;, sans-serif;font-size:16px;font-weight:400;text-anchor:start;dominant-baseline:auto" />
  <path
    d="M 340 148&#10;     C 392 148, 424 168, 424 200&#10;     C 424 232, 392 252, 340 252&#10;     C 288 252, 256 272, 256 304&#10;     C 256 336, 288 356, 340 356"
    fill="none" stroke="url(#spiralGrad)" stroke-width="3.5" stroke-linecap="round" opacity="0.55"
    style="fill:none;color:rgb(0, 0, 0);stroke-width:3.5px;stroke-linecap:round;stroke-linejoin:miter;opacity:0.55;font-family:&quot;Anthropic Sans&quot;, -apple-system, &quot;system-ui&quot;, &quot;Segoe UI&quot;, sans-serif;font-size:16px;font-weight:400;text-anchor:start;dominant-baseline:auto" />
  <path
    d="M 340 168&#10;     C 380 168, 406 183, 406 205&#10;     C 406 227, 380 243, 340 243&#10;     C 300 243, 274 259, 274 281&#10;     C 274 303, 300 319, 340 319"
    fill="none" stroke="url(#spiralGrad)" stroke-width="2.5" stroke-linecap="round" opacity="0.75"
    style="fill:none;color:rgb(0, 0, 0);stroke-width:2.5px;stroke-linecap:round;stroke-linejoin:miter;opacity:0.75;font-family:&quot;Anthropic Sans&quot;, -apple-system, &quot;system-ui&quot;, &quot;Segoe UI&quot;, sans-serif;font-size:16px;font-weight:400;text-anchor:start;dominant-baseline:auto" />
  <path
    d="M 340 186&#10;     C 368 186, 388 197, 388 212&#10;     C 388 227, 368 238, 340 238&#10;     C 312 238, 292 249, 292 264&#10;     C 292 279, 312 290, 340 290"
    fill="none" stroke="url(#spiralGrad)" stroke-width="1.8" stroke-linecap="round" opacity="0.9"
    style="fill:none;color:rgb(0, 0, 0);stroke-width:1.8px;stroke-linecap:round;stroke-linejoin:miter;opacity:0.9;font-family:&quot;Anthropic Sans&quot;, -apple-system, &quot;system-ui&quot;, &quot;Segoe UI&quot;, sans-serif;font-size:16px;font-weight:400;text-anchor:start;dominant-baseline:auto" />
  <circle cx="340" cy="252" r="3.5" fill="#7F77DD" opacity="0.9"
    style="fill:rgb(127, 119, 221);stroke:none;color:rgb(0, 0, 0);stroke-width:1px;stroke-linecap:butt;stroke-linejoin:miter;opacity:0.9;font-family:&quot;Anthropic Sans&quot;, -apple-system, &quot;system-ui&quot;, &quot;Segoe UI&quot;, sans-serif;font-size:16px;font-weight:400;text-anchor:start;dominant-baseline:auto" />

  </g>
</svg>